# xmcd CD database file
#
# Track frame offsets:
#	150
#	8203
#	39410
#	68937
#	84783
#	113717
#	153904
#	160134
#	189268
#
# Disc length: 2917 seconds
#
# Revision: 0
# Processed by: cddbd v1.5.1PL0 Copyright (c) Steve Scherf et al.
# Submitted via: CDex 1.51
#
DISCID=5d0b6309
DTITLE=Andreaz Hedèn Trio - Who's Beautiful
DYEAR=2005
DGENRE=Jazz
TTITLE0=Divina
TTITLE1=Who Beautiful
TTITLE2=Failing
TTITLE3=Alltid
TTITLE4=Nordic Lights
TTITLE5=Homeland
TTITLE6=Who's Beautiful 2
TTITLE7=To Bill
TTITLE8=Quiet Comfort
EXTD=YEAR: 2005
EXTT0=
EXTT1=
EXTT2=
EXTT3=
EXTT4=
EXTT5=
EXTT6=
EXTT7=
EXTT8=
PLAYORDER=
